#!OML:ASF G:\JayActor3\Patient Classification 1\Patient 1\Session 6\male.ASF
:FULLY-SPECIFIED
:DEGREES
1369
root 12.2404 14.6626 -6.47383 18.531 -66.0914 0.311837
lowerback 37.4373 -1.59695 2.87942
upperback 20.0538 -3.11861 1.25697
thorax 3.58747 -2.15056 0.67837
lowerneck 2.34101 4.48845 0.494309
upperneck -15.334 5.88596 -1.75193
head -4.91833 2.93491 -0.906511
rclavicle -2.42517e-014 8.29926e-015
rhumerus -2.52021 10.4692 -74.184
rradius 65.909
rwrist -6.96115
rhand -25.5087 -11.2712
rfingers 7.12502
rthumb 1.02028 -41.2485
lclavicle -2.42517e-014 8.29926e-015
lhumerus 43.3685 0.958753 52.3973
lradius 54.8447
lwrist 24.6113
lhand -13.299 9.11374
lfingers 7.12502
lthumb 12.805 38.701
rfemur -67.7134 -5.7853 24.977
rtibia 72.0035
rfoot -27.0357 -21.1789
rtoes -0.170342
lfemur -60.9226 16.1476 -31.6897
ltibia 66.7553
lfoot -23.9885 16.8512
ltoes -8.60352
1370
root 12.2153 14.6504 -6.47993 18.3377 -66.0232 0.490263
lowerback 37.4494 -1.62163 2.92276
upperback 20.0895 -3.13902 1.28539
thorax 3.62501 -2.15946 0.690735
lowerneck 2.37677 4.49926 0.486742
upperneck -15.2747 5.90266 -1.74754
head -4.90629 2.94438 -0.904693
rclavicle 3.598e-014 -1.96797e-014
rhumerus -2.57079 10.5218 -74.1992
rradius 65.8622
rwrist -6.87966
rhand -25.414 -11.3113
rfingers 7.12502
rthumb 1.11175 -41.2882
lclavicle 3.598e-014 -1.96797e-014
lhumerus 43.4997 1.0151 52.4514
lradius 54.7465
lwrist 24.5136
lhand -13.4387 9.06889
lfingers 7.12502
lthumb 12.6703 38.6646
rfemur -67.5267 -5.59897 24.7935
rtibia 72.0847
rfoot -27.347 -21.121
rtoes -0.0508611
lfemur -60.9127 16.0803 -31.6395
ltibia 66.9732
lfoot -24.1224 16.8147
ltoes -8.62815
1371
root 12.1903 14.6383 -6.48665 18.1401 -65.9754 0.683144
lowerback 37.474 -1.6405 2.94702
upperback 20.114 -3.15646 1.31189
thorax 3.64613 -2.16831 0.71099
lowerneck 2.38763 4.51181 0.470757
upperneck -15.2168 5.91991 -1.74916
head -4.89056 2.95482 -0.902727
rclavicle -2.10712e-014 -4.50744e-014
rhumerus -2.62075 10.5701 -74.2267
rradius 65.8032
rwrist -6.79594
rhand -25.3058 -11.3316
rfingers 7.12502
rthumb 1.21626 -41.3079
lclavicle -2.10712e-014 -4.50744e-014
lhumerus 43.6073 1.09132 52.5333
lradius 54.6679
lwrist 24.3841
lhand -13.5723 9.01972
lfingers 7.12502
lthumb 12.5414 38.6233
rfemur -67.4071 -5.41244 24.5788
rtibia 72.1957
rfoot -27.4523 -21.1051
rtoes -0.162669
lfemur -60.9027 16.0131 -31.5923
ltibia 67.18
lfoot -24.2609 16.7717
ltoes -8.66958
1372
root 12.1653 14.627 -6.49338 17.9429 -65.9594 0.888483
lowerback 37.5119 -1.65121 2.94868
upperback 20.1255 -3.16917 1.33316
thorax 3.64869 -2.17635 0.737078
lowerneck 2.3785 4.5249 0.442859
upperneck -15.1651 5.93652 -1.75154
head -4.87372 2.96545 -0.8986
rclavicle 7.0171e-014 1.38901e-014
rhumerus -2.67116 10.6198 -74.2656
rradius 65.739
rwrist -6.72175
rhand -25.1982 -11.3365
rfingers 7.12502
rthumb 1.32016 -41.3121
lclavicle 7.0171e-014 1.38901e-014
lhumerus 43.6809 1.19145 52.6473
lradius 54.6166
lwrist 24.2223
lhand -13.6756 8.96506
lfingers 7.12502
lthumb 12.4419 38.5747
rfemur -67.368 -5.25561 24.3849
rtibia 72.3385
rfoot -27.4375 -21.1326
rtoes -0.364264
lfemur -60.8877 15.9609 -31.5564
ltibia 67.3654
lfoot -24.4252 16.7119
ltoes -8.66058
1373
root 12.1403 14.6172 -6.49985 17.7522 -65.9741 1.09715
lowerback 37.5718 -1.65431 2.93096
upperback 20.1211 -3.1763 1.35098
thorax 3.62663 -2.18305 0.769368
lowerneck 2.35021 4.5365 0.401101
upperneck -15.1178 5.95012 -1.75076
head -4.85558 2.97497 -0.890675
rclavicle -3.61788e-014 -8.5701e-014
rhumerus -2.72575 10.671 -74.3135
rradius 65.6723
rwrist -6.6599
rhand -25.1045 -11.322
rfingers 7.12502
rthumb 1.41062 -41.297
lclavicle -3.61788e-014 -8.5701e-014
lhumerus 43.7266 1.31463 52.7871
lradius 54.5858
lwrist 24.0461
lhand -13.7163 8.91354
lfingers 7.12502
lthumb 12.4026 38.5256
rfemur -67.3982 -5.15488 24.2563
rtibia 72.5136
rfoot -27.3863 -21.1875
rtoes -0.532347
lfemur -60.8614 15.9354 -31.5336
ltibia 67.5205
lfoot -24.6079 16.6443
ltoes -8.61919
1374
root 12.1152 14.6092 -6.50575 17.5706 -66.018 1.3085
lowerback 37.644 -1.65045 2.89309
upperback 20.1074 -3.18012 1.36445
thorax 3.59037 -2.18963 0.807368
lowerneck 2.29738 4.5485 0.364584
upperneck -15.0745 5.96275 -1.76099
head -4.83405 2.98418 -0.886301
rclavicle -1.72943e-014 1.4561e-014
rhumerus -2.77027 10.7263 -74.3712
rradius 65.6001
rwrist -6.61312
rhand -25.0303 -11.2976
rfingers 7.12502
rthumb 1.48228 -41.2722
lclavicle -1.72943e-014 1.4561e-014
lhumerus 43.748 1.46821 52.9528
lradius 54.5738
lwrist 23.8663
lhand -13.6997 8.87619
lfingers 7.12502
lthumb 12.4186 38.4873
rfemur -67.4767 -5.11671 24.2021
rtibia 72.7081
rfoot -27.3541 -21.2568
rtoes -0.624824
lfemur -60.8279 15.9408 -31.5291
ltibia 67.6446
lfoot -24.8065 16.5693
ltoes -8.52795
1375
root 12.0899 14.6037 -6.51117 17.3948 -66.0776 1.51841
lowerback 37.7293 -1.64629 2.84623
upperback 20.0872 -3.18558 1.37407
thorax 3.5428 -2.19758 0.847174
lowerneck 2.23204 4.56062 0.33833
upperneck -15.0402 5.97472 -1.78083
head -4.81258 2.99288 -0.886289
rclavicle 4.41302e-014 -1.21259e-014
rhumerus -2.80367 10.7851 -74.4402
rradius 65.5181
rwrist -6.57584
rhand -24.9886 -11.2685
rfingers 7.12502
rthumb 1.52254 -41.2428
lclavicle 4.41302e-014 -1.21259e-014
lhumerus 43.7597 1.64811 53.1309
lradius 54.561
lwrist 23.7121
lhand -13.6415 8.84474
lfingers 7.12502
lthumb 12.4748 38.4524
rfemur -67.5585 -5.12671 24.2023
rtibia 72.8963
rfoot -27.3806 -21.3127
rtoes -0.608649
lfemur -60.7817 15.9741 -31.5375
ltibia 67.7389
lfoot -24.9974 16.5002
ltoes -8.43494
1376
root 12.0644 14.6004 -6.51627 17.2408 -66.1405 1.70794
lowerback 37.8211 -1.64479 2.80324
upperback 20.0645 -3.19292 1.38648
thorax 3.49063 -2.20646 0.888775
lowerneck 2.16283 4.57201 0.328794
upperneck -15.0168 5.98452 -1.81674
head -4.79275 3.00037 -0.893846
rclavicle 8.74653e-015 -4.86774e-014
rhumerus -2.82259 10.8451 -74.5113
rradius 65.4247
rwrist -6.55105
rhand -24.9778 -11.2445
rfingers 7.12502
rthumb 1.53299 -41.2187
lclavicle 8.74653e-015 -4.86774e-014
lhumerus 43.7725 1.84716 53.3232
lradius 54.5349
lwrist 23.5989
lhand -13.5685 8.83465
lfingers 7.12502
lthumb 12.5451 38.438
rfemur -67.6129 -5.16719 24.2376
rtibia 73.0538
rfoot -27.4549 -21.3375
rtoes -0.526113
lfemur -60.7322 16.0285 -31.5476
ltibia 67.8135
lfoot -25.1685 16.4357
ltoes -8.34156
1377
root 12.0388 14.5992 -6.5213 17.1034 -66.1941 1.88019
lowerback 37.9109 -1.65185 2.77451
upperback 20.0445 -3.20669 1.40134
thorax 3.44213 -2.21753 0.927308
lowerneck 2.09652 4.58231 0.336213
upperneck -15.0051 5.99243 -1.86326
head -4.77617 3.0065 -0.907558
rclavicle 1.59028e-015 4.80562e-014
rhumerus -2.82282 10.899 -74.5854
rradius 65.3135
rwrist -6.5298
rhand -24.9916 -11.2275
rfingers 7.12502
rthumb 1.51972 -41.2018
lclavicle 1.59028e-015 4.80562e-014
lhumerus 43.7983 2.0587 53.5245
lradius 54.4805
lwrist 23.5285
lhand -13.5068 8.83398
lfingers 7.12502
lthumb 12.6046 38.4337
rfemur -67.6228 -5.2197 24.2798
rtibia 73.1673
rfoot -27.5569 -21.3233
rtoes -0.429224
lfemur -60.6824 16.0896 -31.5545
ltibia 67.8769
lfoot -25.3091 16.3807
ltoes -8.25872
